<svg width="132" height="32" viewBox="0 0 132 32" fill="none" xmlns="http://www.w3.org/2000/svg">
<mask id="path-1-outside-1_70_756" maskUnits="userSpaceOnUse" x="30.875" y="8" width="101" height="23" fill="black">
<rect fill="white" x="30.875" y="8" width="101" height="23"/>
<path d="M42.425 26.655C43.465 26.655 44.39 26.51 45.2 26.22C46.01 25.92 46.605 25.625 46.985 25.335L48.59 28.53C48.13 28.93 47.335 29.335 46.205 29.745C45.085 30.155 43.745 30.36 42.185 30.36C40.725 30.36 39.36 30.105 38.09 29.595C36.82 29.075 35.705 28.355 34.745 27.435C33.785 26.505 33.035 25.42 32.495 24.18C31.955 22.93 31.685 21.58 31.685 20.13C31.685 18.68 31.95 17.33 32.48 16.08C33.02 14.82 33.77 13.725 34.73 12.795C35.69 11.865 36.805 11.14 38.075 10.62C39.355 10.1 40.725 9.84 42.185 9.84C43.745 9.84 45.085 10.045 46.205 10.455C47.335 10.865 48.13 11.27 48.59 11.67L46.985 14.865C46.605 14.575 46.01 14.285 45.2 13.995C44.39 13.695 43.465 13.545 42.425 13.545C41.365 13.545 40.42 13.715 39.59 14.055C38.77 14.395 38.07 14.87 37.49 15.48C36.92 16.08 36.485 16.775 36.185 17.565C35.885 18.355 35.735 19.195 35.735 20.085C35.735 20.985 35.885 21.835 36.185 22.635C36.485 23.425 36.92 24.125 37.49 24.735C38.07 25.335 38.77 25.805 39.59 26.145C40.42 26.485 41.365 26.655 42.425 26.655ZM54.7895 30.36C53.4795 30.36 52.3095 30.08 51.2795 29.52C50.2595 28.96 49.4595 28.195 48.8795 27.225C48.2995 26.245 48.0095 25.13 48.0095 23.88C48.0095 22.63 48.2995 21.515 48.8795 20.535C49.4595 19.545 50.2595 18.765 51.2795 18.195C52.3095 17.615 53.4795 17.325 54.7895 17.325C56.1095 17.325 57.2745 17.615 58.2845 18.195C59.2945 18.765 60.0845 19.545 60.6545 20.535C61.2245 21.515 61.5095 22.63 61.5095 23.88C61.5095 25.13 61.2245 26.245 60.6545 27.225C60.0845 28.195 59.2945 28.96 58.2845 29.52C57.2745 30.08 56.1095 30.36 54.7895 30.36ZM54.7895 27.195C55.4195 27.195 55.9645 27.055 56.4245 26.775C56.8945 26.485 57.2545 26.09 57.5045 25.59C57.7645 25.08 57.8945 24.505 57.8945 23.865C57.8945 23.225 57.7645 22.65 57.5045 22.14C57.2545 21.63 56.8945 21.23 56.4245 20.94C55.9645 20.64 55.4195 20.49 54.7895 20.49C54.1595 20.49 53.6095 20.64 53.1395 20.94C52.6795 21.23 52.3195 21.63 52.0595 22.14C51.7995 22.65 51.6695 23.225 51.6695 23.865C51.6695 24.505 51.7995 25.08 52.0595 25.59C52.3195 26.09 52.6795 26.485 53.1395 26.775C53.6095 27.055 54.1595 27.195 54.7895 27.195ZM66.7067 30.36C65.5367 30.36 64.5067 30.08 63.6167 29.52C62.7367 28.95 62.0467 28.175 61.5467 27.195C61.0567 26.205 60.8117 25.09 60.8117 23.85C60.8117 22.61 61.0567 21.5 61.5467 20.52C62.0467 19.53 62.7367 18.75 63.6167 18.18C64.5067 17.61 65.5367 17.325 66.7067 17.325C67.5367 17.325 68.2717 17.46 68.9117 17.73C69.5617 18 70.0817 18.32 70.4717 18.69C70.8617 19.06 71.0917 19.39 71.1617 19.68V9.36H74.9867V30H71.2067V27.855C71.0467 28.205 70.7517 28.575 70.3217 28.965C69.8917 29.355 69.3667 29.685 68.7467 29.955C68.1267 30.225 67.4467 30.36 66.7067 30.36ZM67.7867 27.33C68.4267 27.33 69.0017 27.185 69.5117 26.895C70.0217 26.595 70.4217 26.185 70.7117 25.665C71.0117 25.135 71.1617 24.53 71.1617 23.85C71.1617 23.17 71.0117 22.57 70.7117 22.05C70.4217 21.52 70.0217 21.105 69.5117 20.805C69.0017 20.505 68.4267 20.355 67.7867 20.355C67.1967 20.355 66.6567 20.505 66.1667 20.805C65.6767 21.095 65.2817 21.505 64.9817 22.035C64.6917 22.555 64.5467 23.16 64.5467 23.85C64.5467 24.54 64.6917 25.15 64.9817 25.68C65.2817 26.2 65.6767 26.605 66.1667 26.895C66.6567 27.185 67.1967 27.33 67.7867 27.33ZM77.8494 24.69C77.8794 25.25 78.0294 25.75 78.2994 26.19C78.5694 26.63 78.9594 26.975 79.4694 27.225C79.9894 27.475 80.6094 27.6 81.3294 27.6C81.9794 27.6 82.5494 27.52 83.0394 27.36C83.5394 27.2 83.9594 27.005 84.2994 26.775C84.6494 26.535 84.9094 26.305 85.0794 26.085L86.6544 28.425C86.3744 28.775 85.9994 29.1 85.5294 29.4C85.0694 29.69 84.4794 29.92 83.7594 30.09C83.0494 30.27 82.1594 30.36 81.0894 30.36C79.7394 30.36 78.5544 30.095 77.5344 29.565C76.5144 29.035 75.7194 28.27 75.1494 27.27C74.5794 26.27 74.2944 25.08 74.2944 23.7C74.2944 22.5 74.5494 21.42 75.0594 20.46C75.5694 19.49 76.3094 18.725 77.2794 18.165C78.2594 17.605 79.4344 17.325 80.8044 17.325C82.0944 17.325 83.2094 17.575 84.1494 18.075C85.0994 18.565 85.8344 19.285 86.3544 20.235C86.8744 21.185 87.1344 22.345 87.1344 23.715C87.1344 23.795 87.1294 23.96 87.1194 24.21C87.1194 24.45 87.1094 24.61 87.0894 24.69H77.8494ZM83.5644 22.335C83.5544 22.015 83.4544 21.67 83.2644 21.3C83.0844 20.93 82.7994 20.615 82.4094 20.355C82.0194 20.095 81.4994 19.965 80.8494 19.965C80.1994 19.965 79.6644 20.09 79.2444 20.34C78.8344 20.59 78.5244 20.9 78.3144 21.27C78.1044 21.63 77.9844 21.985 77.9544 22.335H83.5644ZM93.8321 9.84C95.0221 9.84 96.0571 9.975 96.9371 10.245C97.8271 10.505 98.5321 10.785 99.0521 11.085C99.5821 11.385 99.9021 11.58 100.012 11.67L98.1821 14.715C98.0221 14.585 97.7471 14.405 97.3571 14.175C96.9771 13.935 96.5171 13.725 95.9771 13.545C95.4371 13.355 94.8521 13.26 94.2221 13.26C93.3121 13.26 92.5821 13.435 92.0321 13.785C91.4921 14.125 91.2221 14.62 91.2221 15.27C91.2221 15.71 91.3671 16.105 91.6571 16.455C91.9471 16.795 92.3721 17.115 92.9321 17.415C93.5021 17.715 94.1971 18.03 95.0171 18.36C95.7371 18.64 96.4221 18.965 97.0721 19.335C97.7321 19.705 98.3171 20.14 98.8271 20.64C99.3471 21.14 99.7571 21.72 100.057 22.38C100.367 23.04 100.522 23.795 100.522 24.645C100.522 25.595 100.327 26.425 99.9371 27.135C99.5571 27.845 99.0271 28.44 98.3471 28.92C97.6771 29.4 96.9071 29.76 96.0371 30C95.1671 30.24 94.2521 30.36 93.2921 30.36C91.9921 30.36 90.8221 30.21 89.7821 29.91C88.7521 29.6 87.9171 29.27 87.2771 28.92C86.6371 28.57 86.2621 28.345 86.1521 28.245L88.0721 25.08C88.1921 25.17 88.4171 25.315 88.7471 25.515C89.0871 25.715 89.4971 25.92 89.9771 26.13C90.4671 26.34 90.9971 26.52 91.5671 26.67C92.1471 26.82 92.7371 26.895 93.3371 26.895C94.4171 26.895 95.2321 26.67 95.7821 26.22C96.3321 25.77 96.6071 25.185 96.6071 24.465C96.6071 23.925 96.4321 23.45 96.0821 23.04C95.7321 22.63 95.2371 22.255 94.5971 21.915C93.9671 21.565 93.2121 21.21 92.3321 20.85C91.4521 20.48 90.6321 20.05 89.8721 19.56C89.1221 19.06 88.5171 18.45 88.0571 17.73C87.5971 17 87.3671 16.105 87.3671 15.045C87.3671 13.995 87.6621 13.08 88.2521 12.3C88.8521 11.52 89.6421 10.915 90.6221 10.485C91.6121 10.055 92.6821 9.84 93.8321 9.84ZM99.6777 17.685H101.898V12.63H105.678V17.685H108.588V20.85H105.678V25.305C105.678 25.895 105.773 26.355 105.963 26.685C106.153 27.005 106.453 27.165 106.863 27.165C107.173 27.165 107.428 27.105 107.628 26.985C107.828 26.855 107.948 26.765 107.988 26.715L109.338 29.445C109.278 29.505 109.083 29.61 108.753 29.76C108.433 29.91 108.018 30.045 107.508 30.165C107.008 30.295 106.443 30.36 105.813 30.36C104.683 30.36 103.748 30.035 103.008 29.385C102.268 28.725 101.898 27.705 101.898 26.325V20.85H99.6777V17.685ZM118.235 30V27.855C118.145 28.075 117.915 28.385 117.545 28.785C117.175 29.185 116.675 29.55 116.045 29.88C115.425 30.2 114.695 30.36 113.855 30.36C112.675 30.36 111.63 30.08 110.72 29.52C109.81 28.95 109.095 28.175 108.575 27.195C108.065 26.205 107.81 25.09 107.81 23.85C107.81 22.61 108.065 21.5 108.575 20.52C109.095 19.53 109.81 18.75 110.72 18.18C111.63 17.61 112.675 17.325 113.855 17.325C114.675 17.325 115.385 17.465 115.985 17.745C116.595 18.015 117.085 18.335 117.455 18.705C117.835 19.065 118.08 19.39 118.19 19.68V17.685H121.97V30H118.235ZM111.545 23.85C111.545 24.54 111.7 25.15 112.01 25.68C112.32 26.2 112.73 26.605 113.24 26.895C113.75 27.185 114.305 27.33 114.905 27.33C115.535 27.33 116.095 27.185 116.585 26.895C117.075 26.595 117.46 26.185 117.74 25.665C118.03 25.135 118.175 24.53 118.175 23.85C118.175 23.17 118.03 22.57 117.74 22.05C117.46 21.52 117.075 21.105 116.585 20.805C116.095 20.505 115.535 20.355 114.905 20.355C114.305 20.355 113.75 20.505 113.24 20.805C112.73 21.095 112.32 21.505 112.01 22.035C111.7 22.555 111.545 23.16 111.545 23.85ZM121.348 17.685H123.568V12.63H127.348V17.685H130.258V20.85H127.348V25.305C127.348 25.895 127.443 26.355 127.633 26.685C127.823 27.005 128.123 27.165 128.533 27.165C128.843 27.165 129.098 27.105 129.298 26.985C129.498 26.855 129.618 26.765 129.658 26.715L131.008 29.445C130.948 29.505 130.753 29.61 130.423 29.76C130.103 29.91 129.688 30.045 129.178 30.165C128.678 30.295 128.113 30.36 127.483 30.36C126.353 30.36 125.418 30.035 124.678 29.385C123.938 28.725 123.568 27.705 123.568 26.325V20.85H121.348V17.685Z"/>
</mask>
<path d="M42.425 26.655C43.465 26.655 44.39 26.51 45.2 26.22C46.01 25.92 46.605 25.625 46.985 25.335L48.59 28.53C48.13 28.93 47.335 29.335 46.205 29.745C45.085 30.155 43.745 30.36 42.185 30.36C40.725 30.36 39.36 30.105 38.09 29.595C36.82 29.075 35.705 28.355 34.745 27.435C33.785 26.505 33.035 25.42 32.495 24.18C31.955 22.93 31.685 21.58 31.685 20.13C31.685 18.68 31.95 17.33 32.48 16.08C33.02 14.82 33.77 13.725 34.73 12.795C35.69 11.865 36.805 11.14 38.075 10.62C39.355 10.1 40.725 9.84 42.185 9.84C43.745 9.84 45.085 10.045 46.205 10.455C47.335 10.865 48.13 11.27 48.59 11.67L46.985 14.865C46.605 14.575 46.01 14.285 45.2 13.995C44.39 13.695 43.465 13.545 42.425 13.545C41.365 13.545 40.42 13.715 39.59 14.055C38.77 14.395 38.07 14.87 37.49 15.48C36.92 16.08 36.485 16.775 36.185 17.565C35.885 18.355 35.735 19.195 35.735 20.085C35.735 20.985 35.885 21.835 36.185 22.635C36.485 23.425 36.92 24.125 37.49 24.735C38.07 25.335 38.77 25.805 39.59 26.145C40.42 26.485 41.365 26.655 42.425 26.655ZM54.7895 30.36C53.4795 30.36 52.3095 30.08 51.2795 29.52C50.2595 28.96 49.4595 28.195 48.8795 27.225C48.2995 26.245 48.0095 25.13 48.0095 23.88C48.0095 22.63 48.2995 21.515 48.8795 20.535C49.4595 19.545 50.2595 18.765 51.2795 18.195C52.3095 17.615 53.4795 17.325 54.7895 17.325C56.1095 17.325 57.2745 17.615 58.2845 18.195C59.2945 18.765 60.0845 19.545 60.6545 20.535C61.2245 21.515 61.5095 22.63 61.5095 23.88C61.5095 25.13 61.2245 26.245 60.6545 27.225C60.0845 28.195 59.2945 28.96 58.2845 29.52C57.2745 30.08 56.1095 30.36 54.7895 30.36ZM54.7895 27.195C55.4195 27.195 55.9645 27.055 56.4245 26.775C56.8945 26.485 57.2545 26.09 57.5045 25.59C57.7645 25.08 57.8945 24.505 57.8945 23.865C57.8945 23.225 57.7645 22.65 57.5045 22.14C57.2545 21.63 56.8945 21.23 56.4245 20.94C55.9645 20.64 55.4195 20.49 54.7895 20.49C54.1595 20.49 53.6095 20.64 53.1395 20.94C52.6795 21.23 52.3195 21.63 52.0595 22.14C51.7995 22.65 51.6695 23.225 51.6695 23.865C51.6695 24.505 51.7995 25.08 52.0595 25.59C52.3195 26.09 52.6795 26.485 53.1395 26.775C53.6095 27.055 54.1595 27.195 54.7895 27.195ZM66.7067 30.36C65.5367 30.36 64.5067 30.08 63.6167 29.52C62.7367 28.95 62.0467 28.175 61.5467 27.195C61.0567 26.205 60.8117 25.09 60.8117 23.85C60.8117 22.61 61.0567 21.5 61.5467 20.52C62.0467 19.53 62.7367 18.75 63.6167 18.18C64.5067 17.61 65.5367 17.325 66.7067 17.325C67.5367 17.325 68.2717 17.46 68.9117 17.73C69.5617 18 70.0817 18.32 70.4717 18.69C70.8617 19.06 71.0917 19.39 71.1617 19.68V9.36H74.9867V30H71.2067V27.855C71.0467 28.205 70.7517 28.575 70.3217 28.965C69.8917 29.355 69.3667 29.685 68.7467 29.955C68.1267 30.225 67.4467 30.36 66.7067 30.36ZM67.7867 27.33C68.4267 27.33 69.0017 27.185 69.5117 26.895C70.0217 26.595 70.4217 26.185 70.7117 25.665C71.0117 25.135 71.1617 24.53 71.1617 23.85C71.1617 23.17 71.0117 22.57 70.7117 22.05C70.4217 21.52 70.0217 21.105 69.5117 20.805C69.0017 20.505 68.4267 20.355 67.7867 20.355C67.1967 20.355 66.6567 20.505 66.1667 20.805C65.6767 21.095 65.2817 21.505 64.9817 22.035C64.6917 22.555 64.5467 23.16 64.5467 23.85C64.5467 24.54 64.6917 25.15 64.9817 25.68C65.2817 26.2 65.6767 26.605 66.1667 26.895C66.6567 27.185 67.1967 27.33 67.7867 27.33ZM77.8494 24.69C77.8794 25.25 78.0294 25.75 78.2994 26.19C78.5694 26.63 78.9594 26.975 79.4694 27.225C79.9894 27.475 80.6094 27.6 81.3294 27.6C81.9794 27.6 82.5494 27.52 83.0394 27.36C83.5394 27.2 83.9594 27.005 84.2994 26.775C84.6494 26.535 84.9094 26.305 85.0794 26.085L86.6544 28.425C86.3744 28.775 85.9994 29.1 85.5294 29.4C85.0694 29.69 84.4794 29.92 83.7594 30.09C83.0494 30.27 82.1594 30.36 81.0894 30.36C79.7394 30.36 78.5544 30.095 77.5344 29.565C76.5144 29.035 75.7194 28.27 75.1494 27.27C74.5794 26.27 74.2944 25.08 74.2944 23.7C74.2944 22.5 74.5494 21.42 75.0594 20.46C75.5694 19.49 76.3094 18.725 77.2794 18.165C78.2594 17.605 79.4344 17.325 80.8044 17.325C82.0944 17.325 83.2094 17.575 84.1494 18.075C85.0994 18.565 85.8344 19.285 86.3544 20.235C86.8744 21.185 87.1344 22.345 87.1344 23.715C87.1344 23.795 87.1294 23.96 87.1194 24.21C87.1194 24.45 87.1094 24.61 87.0894 24.69H77.8494ZM83.5644 22.335C83.5544 22.015 83.4544 21.67 83.2644 21.3C83.0844 20.93 82.7994 20.615 82.4094 20.355C82.0194 20.095 81.4994 19.965 80.8494 19.965C80.1994 19.965 79.6644 20.09 79.2444 20.34C78.8344 20.59 78.5244 20.9 78.3144 21.27C78.1044 21.63 77.9844 21.985 77.9544 22.335H83.5644ZM93.8321 9.84C95.0221 9.84 96.0571 9.975 96.9371 10.245C97.8271 10.505 98.5321 10.785 99.0521 11.085C99.5821 11.385 99.9021 11.58 100.012 11.67L98.1821 14.715C98.0221 14.585 97.7471 14.405 97.3571 14.175C96.9771 13.935 96.5171 13.725 95.9771 13.545C95.4371 13.355 94.8521 13.26 94.2221 13.26C93.3121 13.26 92.5821 13.435 92.0321 13.785C91.4921 14.125 91.2221 14.62 91.2221 15.27C91.2221 15.71 91.3671 16.105 91.6571 16.455C91.9471 16.795 92.3721 17.115 92.9321 17.415C93.5021 17.715 94.1971 18.03 95.0171 18.36C95.7371 18.64 96.4221 18.965 97.0721 19.335C97.7321 19.705 98.3171 20.14 98.8271 20.64C99.3471 21.14 99.7571 21.72 100.057 22.38C100.367 23.04 100.522 23.795 100.522 24.645C100.522 25.595 100.327 26.425 99.9371 27.135C99.5571 27.845 99.0271 28.44 98.3471 28.92C97.6771 29.4 96.9071 29.76 96.0371 30C95.1671 30.24 94.2521 30.36 93.2921 30.36C91.9921 30.36 90.8221 30.21 89.7821 29.91C88.7521 29.6 87.9171 29.27 87.2771 28.92C86.6371 28.57 86.2621 28.345 86.1521 28.245L88.0721 25.08C88.1921 25.17 88.4171 25.315 88.7471 25.515C89.0871 25.715 89.4971 25.92 89.9771 26.13C90.4671 26.34 90.9971 26.52 91.5671 26.67C92.1471 26.82 92.7371 26.895 93.3371 26.895C94.4171 26.895 95.2321 26.67 95.7821 26.22C96.3321 25.77 96.6071 25.185 96.6071 24.465C96.6071 23.925 96.4321 23.45 96.0821 23.04C95.7321 22.63 95.2371 22.255 94.5971 21.915C93.9671 21.565 93.2121 21.21 92.3321 20.85C91.4521 20.48 90.6321 20.05 89.8721 19.56C89.1221 19.06 88.5171 18.45 88.0571 17.73C87.5971 17 87.3671 16.105 87.3671 15.045C87.3671 13.995 87.6621 13.08 88.2521 12.3C88.8521 11.52 89.6421 10.915 90.6221 10.485C91.6121 10.055 92.6821 9.84 93.8321 9.84ZM99.6777 17.685H101.898V12.63H105.678V17.685H108.588V20.85H105.678V25.305C105.678 25.895 105.773 26.355 105.963 26.685C106.153 27.005 106.453 27.165 106.863 27.165C107.173 27.165 107.428 27.105 107.628 26.985C107.828 26.855 107.948 26.765 107.988 26.715L109.338 29.445C109.278 29.505 109.083 29.61 108.753 29.76C108.433 29.91 108.018 30.045 107.508 30.165C107.008 30.295 106.443 30.36 105.813 30.36C104.683 30.36 103.748 30.035 103.008 29.385C102.268 28.725 101.898 27.705 101.898 26.325V20.85H99.6777V17.685ZM118.235 30V27.855C118.145 28.075 117.915 28.385 117.545 28.785C117.175 29.185 116.675 29.55 116.045 29.88C115.425 30.2 114.695 30.36 113.855 30.36C112.675 30.36 111.63 30.08 110.72 29.52C109.81 28.95 109.095 28.175 108.575 27.195C108.065 26.205 107.81 25.09 107.81 23.85C107.81 22.61 108.065 21.5 108.575 20.52C109.095 19.53 109.81 18.75 110.72 18.18C111.63 17.61 112.675 17.325 113.855 17.325C114.675 17.325 115.385 17.465 115.985 17.745C116.595 18.015 117.085 18.335 117.455 18.705C117.835 19.065 118.08 19.39 118.19 19.68V17.685H121.97V30H118.235ZM111.545 23.85C111.545 24.54 111.7 25.15 112.01 25.68C112.32 26.2 112.73 26.605 113.24 26.895C113.75 27.185 114.305 27.33 114.905 27.33C115.535 27.33 116.095 27.185 116.585 26.895C117.075 26.595 117.46 26.185 117.74 25.665C118.03 25.135 118.175 24.53 118.175 23.85C118.175 23.17 118.03 22.57 117.74 22.05C117.46 21.52 117.075 21.105 116.585 20.805C116.095 20.505 115.535 20.355 114.905 20.355C114.305 20.355 113.75 20.505 113.24 20.805C112.73 21.095 112.32 21.505 112.01 22.035C111.7 22.555 111.545 23.16 111.545 23.85ZM121.348 17.685H123.568V12.63H127.348V17.685H130.258V20.85H127.348V25.305C127.348 25.895 127.443 26.355 127.633 26.685C127.823 27.005 128.123 27.165 128.533 27.165C128.843 27.165 129.098 27.105 129.298 26.985C129.498 26.855 129.618 26.765 129.658 26.715L131.008 29.445C130.948 29.505 130.753 29.61 130.423 29.76C130.103 29.91 129.688 30.045 129.178 30.165C128.678 30.295 128.113 30.36 127.483 30.36C126.353 30.36 125.418 30.035 124.678 29.385C123.938 28.725 123.568 27.705 123.568 26.325V20.85H121.348V17.685Z" fill="white"/>
<path d="M45.2 26.22L45.3685 26.6908L45.3737 26.6889L45.2 26.22ZM46.985 25.335L47.4318 25.1106L47.1611 24.5717L46.6817 24.9375L46.985 25.335ZM48.59 28.53L48.9181 28.9073L49.2111 28.6525L49.0368 28.3056L48.59 28.53ZM46.205 29.745L46.0345 29.275L46.0331 29.2755L46.205 29.745ZM38.09 29.595L37.9005 30.0577L37.9037 30.059L38.09 29.595ZM34.745 27.435L34.3971 27.7941L34.399 27.796L34.745 27.435ZM32.495 24.18L32.036 24.3783L32.0366 24.3796L32.495 24.18ZM32.48 16.08L32.0204 15.883L32.0197 15.8848L32.48 16.08ZM34.73 12.795L34.3821 12.4359L34.3821 12.4359L34.73 12.795ZM38.075 10.62L37.8868 10.1568L37.8855 10.1573L38.075 10.62ZM46.205 10.455L46.0331 10.9245L46.0345 10.925L46.205 10.455ZM48.59 11.67L49.0368 11.8944L49.2111 11.5475L48.9181 11.2927L48.59 11.67ZM46.985 14.865L46.6817 15.2625L47.1611 15.6283L47.4318 15.0894L46.985 14.865ZM45.2 13.995L45.0263 14.4639L45.0315 14.4657L45.2 13.995ZM39.59 14.055L39.4005 13.5923L39.3985 13.5931L39.59 14.055ZM37.49 15.48L37.1276 15.1355L37.1275 15.1356L37.49 15.48ZM36.185 22.635L35.7168 22.8106L35.7176 22.8125L36.185 22.635ZM37.49 24.735L37.1246 25.0764L37.1305 25.0825L37.49 24.735ZM39.59 26.145L39.3985 26.6069L39.4005 26.6077L39.59 26.145ZM42.425 27.155C43.5108 27.155 44.4945 27.0037 45.3685 26.6907L45.0315 25.7493C44.2855 26.0163 43.4192 26.155 42.425 26.155V27.155ZM45.3737 26.6889C46.1991 26.3832 46.8492 26.0676 47.2883 25.7325L46.6817 24.9375C46.3608 25.1824 45.8209 25.4568 45.0263 25.7511L45.3737 26.6889ZM46.5382 25.5594L48.1432 28.7544L49.0368 28.3056L47.4318 25.1106L46.5382 25.5594ZM48.2619 28.1527C47.8743 28.4898 47.1517 28.8696 46.0345 29.275L46.3755 30.215C47.5183 29.8004 48.3857 29.3702 48.9181 28.9073L48.2619 28.1527ZM46.0331 29.2755C44.9822 29.6602 43.7034 29.86 42.185 29.86V30.86C43.7866 30.86 45.1878 30.6498 46.3769 30.2145L46.0331 29.2755ZM42.185 29.86C40.7845 29.86 39.4832 29.6157 38.2763 29.131L37.9037 30.059C39.2368 30.5943 40.6655 30.86 42.185 30.86V29.86ZM38.2795 29.1323C37.0656 28.6353 36.0042 27.9492 35.091 27.074L34.399 27.796C35.4058 28.7608 36.5744 29.5147 37.9005 30.0577L38.2795 29.1323ZM35.0929 27.0759C34.1804 26.1919 33.4677 25.1612 32.9534 23.9804L32.0366 24.3796C32.6023 25.6788 33.3896 26.8181 34.3971 27.7941L35.0929 27.0759ZM32.954 23.9817C32.4428 22.7983 32.185 21.5163 32.185 20.13H31.185C31.185 21.6437 31.4672 23.0617 32.036 24.3783L32.954 23.9817ZM32.185 20.13C32.185 18.7424 32.4383 17.4593 32.9403 16.2752L32.0197 15.8848C31.4617 17.2007 31.185 18.6176 31.185 20.13H32.185ZM32.9396 16.277C33.4541 15.0763 34.1667 14.0368 35.0779 13.1541L34.3821 12.4359C33.3733 13.4132 32.5859 14.5637 32.0204 15.883L32.9396 16.277ZM35.0779 13.1541C35.9909 12.2696 37.0518 11.5792 38.2645 11.0827L37.8855 10.1573C36.5582 10.7008 35.3891 11.4604 34.3821 12.4359L35.0779 13.1541ZM38.2632 11.0832C39.4801 10.5889 40.7858 10.34 42.185 10.34V9.34C40.6642 9.34 39.2299 9.61112 37.8868 10.1568L38.2632 11.0832ZM42.185 10.34C43.7034 10.34 44.9822 10.5398 46.0331 10.9245L46.3769 9.98547C45.1878 9.55018 43.7866 9.34 42.185 9.34V10.34ZM46.0345 10.925C47.1517 11.3304 47.8743 11.7102 48.2619 12.0473L48.9181 11.2927C48.3857 10.8298 47.5183 10.3996 46.3755 9.98498L46.0345 10.925ZM48.1432 11.4456L46.5382 14.6406L47.4318 15.0894L49.0368 11.8944L48.1432 11.4456ZM47.2883 14.4675C46.8471 14.1308 46.1948 13.8201 45.3685 13.5243L45.0315 14.4657C45.8252 14.7499 46.3629 15.0192 46.6817 15.2625L47.2883 14.4675ZM45.3737 13.5261C44.498 13.2018 43.5125 13.045 42.425 13.045V14.045C43.4175 14.045 44.282 14.1882 45.0263 14.4639L45.3737 13.5261ZM42.425 13.045C41.3116 13.045 40.3005 13.2236 39.4005 13.5923L39.7795 14.5177C40.5395 14.2064 41.4184 14.045 42.425 14.045V13.045ZM39.3985 13.5931C38.5176 13.9584 37.7584 14.4721 37.1276 15.1355L37.8524 15.8245C38.3816 15.2679 39.0224 14.8316 39.7815 14.5169L39.3985 13.5931ZM37.1275 15.1356C36.5108 15.7848 36.0406 16.5368 35.7176 17.3875L36.6524 17.7425C36.9294 17.0132 37.3292 16.3752 37.8525 15.8244L37.1275 15.1356ZM35.7176 17.3875C35.3949 18.2372 35.235 19.1376 35.235 20.085H36.235C36.235 19.2524 36.3751 18.4728 36.6524 17.7425L35.7176 17.3875ZM35.235 20.085C35.235 21.0417 35.3947 21.9515 35.7168 22.8106L36.6532 22.4594C36.3753 21.7185 36.235 20.9283 36.235 20.085H35.235ZM35.7176 22.8125C36.0403 23.6625 36.5098 24.4183 37.1247 25.0764L37.8553 24.3936C37.3302 23.8317 36.9297 23.1875 36.6524 22.4575L35.7176 22.8125ZM37.1305 25.0825C37.7611 25.7348 38.5194 26.2423 39.3985 26.6069L39.7815 25.6831C39.0206 25.3677 38.3789 24.9352 37.8495 24.3875L37.1305 25.0825ZM39.4005 26.6077C40.3005 26.9764 41.3116 27.155 42.425 27.155V26.155C41.4184 26.155 40.5395 25.9936 39.7795 25.6823L39.4005 26.6077ZM51.2795 29.52L51.0388 29.9583L51.0406 29.9593L51.2795 29.52ZM48.8795 27.225L48.4492 27.4797L48.4503 27.4816L48.8795 27.225ZM48.8795 20.535L49.3097 20.7897L49.3109 20.7877L48.8795 20.535ZM51.2795 18.195L51.5234 18.6315L51.5248 18.6307L51.2795 18.195ZM58.2845 18.195L58.0355 18.6286L58.0387 18.6304L58.2845 18.195ZM60.6545 20.535L60.2211 20.7845L60.2222 20.7864L60.6545 20.535ZM60.6545 27.225L61.0855 27.4783L61.0867 27.4764L60.6545 27.225ZM58.2845 29.52L58.5269 29.9573L58.2845 29.52ZM56.4245 26.775L56.6844 27.2021L56.687 27.2005L56.4245 26.775ZM57.5045 25.59L57.059 25.3629L57.0572 25.3664L57.5045 25.59ZM57.5045 22.14L57.0554 22.3601L57.059 22.3671L57.5045 22.14ZM56.4245 20.94L56.1512 21.3589L56.1619 21.3655L56.4245 20.94ZM53.1395 20.94L53.4061 21.363L53.4085 21.3615L53.1395 20.94ZM52.0595 22.14L52.5049 22.3671L52.0595 22.14ZM52.0595 25.59L51.614 25.8171L51.6158 25.8207L52.0595 25.59ZM53.1395 26.775L52.8727 27.1981L52.8836 27.2045L53.1395 26.775ZM54.7895 29.86C53.5529 29.86 52.4667 29.5964 51.5183 29.0807L51.0406 29.9593C52.1522 30.5636 53.406 30.86 54.7895 30.86V29.86ZM51.5201 29.0817C50.5755 28.5631 49.8416 27.8598 49.3086 26.9684L48.4503 27.4816C49.0773 28.5302 49.9434 29.3569 51.0388 29.9583L51.5201 29.0817ZM49.3097 26.9703C48.7798 26.0749 48.5095 25.0494 48.5095 23.88H47.5095C47.5095 25.2106 47.8191 26.4151 48.4492 27.4797L49.3097 26.9703ZM48.5095 23.88C48.5095 22.7106 48.7798 21.6851 49.3097 20.7897L48.4492 20.2803C47.8191 21.3449 47.5095 22.5494 47.5095 23.88H48.5095ZM49.3109 20.7877C49.845 19.8761 50.5796 19.1589 51.5234 18.6315L51.0355 17.7585C49.9393 18.3711 49.0739 19.2139 48.448 20.2823L49.3109 20.7877ZM51.5248 18.6307C52.472 18.0973 53.5559 17.825 54.7895 17.825V16.825C53.403 16.825 52.1469 17.1327 51.0341 17.7593L51.5248 18.6307ZM54.7895 17.825C56.0339 17.825 57.1109 18.0977 58.0355 18.6286L58.5334 17.7614C57.438 17.1323 56.185 16.825 54.7895 16.825V17.825ZM58.0387 18.6304C58.9719 19.1571 59.6966 19.8734 60.2211 20.7845L61.0878 20.2855C60.4723 19.2166 59.617 18.3729 58.5302 17.7596L58.0387 18.6304ZM60.2222 20.7864C60.7434 21.6824 61.0095 22.709 61.0095 23.88H62.0095C62.0095 22.551 61.7055 21.3476 61.0867 20.2836L60.2222 20.7864ZM61.0095 23.88C61.0095 25.051 60.7434 26.0776 60.2222 26.9736L61.0867 27.4764C61.7055 26.4124 62.0095 25.209 62.0095 23.88H61.0095ZM60.2234 26.9717C59.6999 27.8625 58.976 28.5649 58.042 29.0827L58.5269 29.9573C59.6129 29.3551 60.469 28.5275 61.0855 27.4783L60.2234 26.9717ZM58.042 29.0827C57.1162 29.596 56.0369 29.86 54.7895 29.86V30.86C56.182 30.86 57.4327 30.564 58.5269 29.9573L58.042 29.0827ZM54.7895 27.695C55.4954 27.695 56.1336 27.5374 56.6844 27.2021L56.1645 26.3479C55.7953 26.5726 55.3435 26.695 54.7895 26.695V27.695ZM56.687 27.2005C57.2372 26.8611 57.6606 26.3957 57.9517 25.8136L57.0572 25.3664C56.8483 25.7843 56.5518 26.1089 56.1619 26.3495L56.687 27.2005ZM57.9499 25.8171C58.2498 25.2288 58.3945 24.5745 58.3945 23.865H57.3945C57.3945 24.4355 57.2791 24.9312 57.059 25.3629L57.9499 25.8171ZM58.3945 23.865C58.3945 23.1555 58.2498 22.5012 57.9499 21.9129L57.059 22.3671C57.2791 22.7988 57.3945 23.2945 57.3945 23.865H58.3945ZM57.9534 21.9199C57.6631 21.3278 57.2396 20.8555 56.687 20.5145L56.1619 21.3655C56.5493 21.6045 56.8458 21.9322 57.0555 22.3601L57.9534 21.9199ZM56.6976 20.5212C56.1449 20.1607 55.5018 19.99 54.7895 19.99V20.99C55.3371 20.99 55.784 21.1193 56.1513 21.3588L56.6976 20.5212ZM54.7895 19.99C54.0769 19.99 53.4309 20.1608 52.8704 20.5185L53.4085 21.3615C53.788 21.1192 54.242 20.99 54.7895 20.99V19.99ZM52.8728 20.517C52.3326 20.8576 51.9126 21.3271 51.614 21.9129L52.5049 22.3671C52.7263 21.9329 53.0263 21.6024 53.4061 21.363L52.8728 20.517ZM51.614 21.9129C51.3141 22.5012 51.1695 23.1555 51.1695 23.865H52.1695C52.1695 23.2945 52.2848 22.7988 52.5049 22.3671L51.614 21.9129ZM51.1695 23.865C51.1695 24.5745 51.3141 25.2288 51.614 25.8171L52.5049 25.3629C52.2848 24.9312 52.1695 24.4355 52.1695 23.865H51.1695ZM51.6158 25.8207C51.9152 26.3963 52.335 26.8589 52.8728 27.198L53.4061 26.352C53.0239 26.1111 52.7237 25.7837 52.5031 25.3593L51.6158 25.8207ZM52.8836 27.2045C53.4421 27.5373 54.0832 27.695 54.7895 27.695V26.695C54.2357 26.695 53.7768 26.5727 53.3954 26.3454L52.8836 27.2045ZM63.6167 29.52L63.3449 29.9397L63.3504 29.9432L63.6167 29.52ZM61.5467 27.195L61.0986 27.4168L61.1013 27.4222L61.5467 27.195ZM61.5467 20.52L61.1004 20.2946L61.0995 20.2964L61.5467 20.52ZM63.6167 18.18L63.3471 17.7589L63.3449 17.7603L63.6167 18.18ZM68.9117 17.73L68.7174 18.1907L68.7199 18.1917L68.9117 17.73ZM70.4717 18.69L70.8158 18.3273V18.3273L70.4717 18.69ZM71.1617 19.68L70.6757 19.7973L71.6617 19.68H71.1617ZM71.1617 9.36V8.86H70.6617V9.36H71.1617ZM74.9867 9.36H75.4867V8.86H74.9867V9.36ZM74.9867 30V30.5H75.4867V30H74.9867ZM71.2067 30H70.7067V30.5H71.2067V30ZM71.2067 27.855H71.7067L70.752 27.6471L71.2067 27.855ZM70.3217 28.965L69.9858 28.5946L70.3217 28.965ZM68.7467 29.955L68.9464 30.4134L68.7467 29.955ZM69.5117 26.895L69.7589 27.3297L69.7652 27.326L69.5117 26.895ZM70.7117 25.665L70.2766 25.4187L70.275 25.4215L70.7117 25.665ZM70.7117 22.05L70.273 22.2901L70.2786 22.2999L70.7117 22.05ZM69.5117 20.805L69.7652 20.374L69.5117 20.805ZM66.1667 20.805L66.4214 21.2353L66.4278 21.2314L66.1667 20.805ZM64.9817 22.035L64.5466 21.7887L64.545 21.7915L64.9817 22.035ZM64.9817 25.68L64.543 25.9201L64.5486 25.9299L64.9817 25.68ZM66.1667 26.895L66.4214 26.4647L66.1667 26.895ZM66.7067 29.86C65.62 29.86 64.6845 29.6011 63.883 29.0968L63.3504 29.9432C64.329 30.5589 65.4535 30.86 66.7067 30.86V29.86ZM63.8885 29.1003C63.086 28.5805 62.4542 27.8735 61.9921 26.9678L61.1013 27.4222C61.6392 28.4765 62.3874 29.3195 63.3449 29.9397L63.8885 29.1003ZM61.9948 26.9732C61.5429 26.0602 61.3117 25.0226 61.3117 23.85H60.3117C60.3117 25.1574 60.5705 26.3498 61.0986 27.4168L61.9948 26.9732ZM61.3117 23.85C61.3117 22.6773 61.543 21.6455 61.9939 20.7436L61.0995 20.2964C60.5705 21.3545 60.3117 22.5427 60.3117 23.85H61.3117ZM61.993 20.7454C62.4555 19.8297 63.0872 19.1187 63.8885 18.5997L63.3449 17.7603C62.3862 18.3813 61.6379 19.2303 61.1004 20.2946L61.993 20.7454ZM63.8864 18.601C64.6874 18.088 65.6217 17.825 66.7067 17.825V16.825C65.4517 16.825 64.326 17.132 63.3471 17.7589L63.8864 18.601ZM66.7067 17.825C67.4827 17.825 68.1496 17.9512 68.7174 18.1907L69.1061 17.2693C68.3938 16.9688 67.5907 16.825 66.7067 16.825V17.825ZM68.7199 18.1917C69.33 18.4452 69.7932 18.7355 70.1276 19.0527L70.8158 18.3273C70.3702 17.9045 69.7934 17.5548 69.1035 17.2683L68.7199 18.1917ZM70.1276 19.0527C70.4962 19.4024 70.6401 19.6499 70.6757 19.7973L71.6478 19.5627C71.5433 19.1301 71.2272 18.7176 70.8158 18.3273L70.1276 19.0527ZM71.6617 19.68V9.36H70.6617V19.68H71.6617ZM71.1617 9.86H74.9867V8.86H71.1617V9.86ZM74.4867 9.36V30H75.4867V9.36H74.4867ZM74.9867 29.5H71.2067V30.5H74.9867V29.5ZM71.7067 30V27.855H70.7067V30H71.7067ZM70.752 27.6471C70.6308 27.9123 70.3887 28.2292 69.9858 28.5946L70.6576 29.3354C71.1147 28.9208 71.4627 28.4977 71.6615 28.0629L70.752 27.6471ZM69.9858 28.5946C69.6022 28.9426 69.1252 29.2448 68.5471 29.4966L68.9464 30.4134C69.6082 30.1252 70.1813 29.7674 70.6576 29.3354L69.9858 28.5946ZM68.5471 29.4966C67.9958 29.7367 67.3846 29.86 66.7067 29.86V30.86C67.5089 30.86 68.2576 30.7133 68.9464 30.4134L68.5471 29.4966ZM67.7867 27.83C68.5053 27.83 69.1668 27.6663 69.7589 27.3296L69.2646 26.4604C68.8366 26.7037 68.3482 26.83 67.7867 26.83V27.83ZM69.7652 27.326C70.3524 26.9806 70.8154 26.5057 71.1484 25.9085L70.275 25.4215C70.0281 25.8643 69.6911 26.2094 69.2582 26.464L69.7652 27.326ZM71.1468 25.9113C71.4942 25.2977 71.6617 24.606 71.6617 23.85H70.6617C70.6617 24.4539 70.5293 24.9723 70.2766 25.4187L71.1468 25.9113ZM71.6617 23.85C71.6617 23.0941 71.4942 22.4058 71.1448 21.8001L70.2786 22.2999C70.5292 22.7342 70.6617 23.2459 70.6617 23.85H71.6617ZM71.1504 21.81C70.818 21.2025 70.3548 20.7208 69.7652 20.374L69.2582 21.236C69.6887 21.4892 70.0255 21.8375 70.2731 22.29L71.1504 21.81ZM69.7652 20.374C69.1722 20.0252 68.5083 19.855 67.7867 19.855V20.855C68.3451 20.855 68.8313 20.9848 69.2582 21.236L69.7652 20.374ZM67.7867 19.855C67.1072 19.855 66.4764 20.0291 65.9056 20.3786L66.4278 21.2314C66.837 20.9809 67.2863 20.855 67.7867 20.855V19.855ZM65.9121 20.3747C65.3416 20.7123 64.8865 21.1881 64.5466 21.7887L65.4168 22.2813C65.6769 21.8219 66.0118 21.4777 66.4214 21.2353L65.9121 20.3747ZM64.545 21.7915C64.2073 22.397 64.0467 23.0884 64.0467 23.85H65.0467C65.0467 23.2316 65.1761 22.713 65.4184 22.2785L64.545 21.7915ZM64.0467 23.85C64.0467 24.6118 64.2074 25.3065 64.5431 25.92L65.4203 25.44C65.176 24.9935 65.0467 24.4682 65.0467 23.85H64.0467ZM64.5486 25.9299C64.8892 26.5201 65.344 26.9891 65.9121 27.3253L66.4214 26.4647C66.0094 26.2209 65.6743 25.8799 65.4148 25.4301L64.5486 25.9299ZM65.9121 27.3253C66.482 27.6626 67.1105 27.83 67.7867 27.83V26.83C67.2829 26.83 66.8314 26.7074 66.4214 26.4647L65.9121 27.3253ZM77.8494 24.69V24.19H77.3219L77.3501 24.7167L77.8494 24.69ZM79.4694 27.225L79.2493 27.674L79.2527 27.6756L79.4694 27.225ZM83.0394 27.36L82.887 26.8838L82.8842 26.8847L83.0394 27.36ZM84.2994 26.775L84.5795 27.1891L84.5821 27.1874L84.2994 26.775ZM85.0794 26.085L85.4942 25.8058L85.1073 25.2311L84.6837 25.7793L85.0794 26.085ZM86.6544 28.425L87.0448 28.7373L87.2743 28.4505L87.0692 28.1458L86.6544 28.425ZM85.5294 29.4L85.796 29.823L85.7984 29.8215L85.5294 29.4ZM83.7594 30.09L83.6445 29.6033L83.6365 29.6053L83.7594 30.09ZM77.5344 29.565L77.7649 29.1213L77.5344 29.565ZM75.1494 27.27L75.5838 27.0224L75.1494 27.27ZM75.0594 20.46L75.5009 20.6946L75.5019 20.6927L75.0594 20.46ZM77.2794 18.165L77.0313 17.7309L77.0294 17.732L77.2794 18.165ZM84.1494 18.075L83.9146 18.5165L83.9202 18.5194L84.1494 18.075ZM86.3544 20.235L85.9158 20.4751V20.4751L86.3544 20.235ZM87.1194 24.21L86.6198 24.19L86.6194 24.2V24.21H87.1194ZM87.0894 24.69V25.19H87.4798L87.5744 24.8113L87.0894 24.69ZM83.5644 22.335V22.835H84.0802L84.0641 22.3194L83.5644 22.335ZM83.2644 21.3L82.8147 21.5188L82.8196 21.5284L83.2644 21.3ZM82.4094 20.355L82.132 20.771L82.4094 20.355ZM79.2444 20.34L78.9886 19.9103L78.9841 19.9131L79.2444 20.34ZM78.3144 21.27L78.7463 21.522L78.7492 21.5168L78.3144 21.27ZM77.9544 22.335L77.4562 22.2923L77.4097 22.835H77.9544V22.335ZM77.3501 24.7167C77.3842 25.3525 77.556 25.9345 77.8732 26.4515L78.7255 25.9285C78.5028 25.5655 78.3746 25.1475 78.3487 24.6633L77.3501 24.7167ZM77.8732 26.4515C78.1977 26.9802 78.6631 27.3866 79.2493 27.674L79.6895 26.776C79.2557 26.5634 78.9411 26.2798 78.7255 25.9285L77.8732 26.4515ZM79.2527 27.6756C79.855 27.9652 80.5525 28.1 81.3294 28.1V27.1C80.6663 27.1 80.1238 26.9848 79.686 26.7744L79.2527 27.6756ZM81.3294 28.1C82.019 28.1 82.6434 28.0153 83.1946 27.8353L82.8842 26.8847C82.4554 27.0247 81.9398 27.1 81.3294 27.1V28.1ZM83.1918 27.8362C83.7251 27.6655 84.1909 27.452 84.5795 27.1891L84.0192 26.3609C83.7278 26.558 83.3536 26.7345 82.887 26.8838L83.1918 27.8362ZM84.5821 27.1874C84.955 26.9317 85.2611 26.6676 85.475 26.3907L84.6837 25.7793C84.5577 25.9424 84.3438 26.1383 84.0166 26.3626L84.5821 27.1874ZM84.6646 26.3642L86.2396 28.7042L87.0692 28.1458L85.4942 25.8058L84.6646 26.3642ZM86.2639 28.1127C86.0253 28.4109 85.695 28.7011 85.2604 28.9785L85.7984 29.8215C86.3038 29.4989 86.7234 29.1391 87.0448 28.7373L86.2639 28.1127ZM85.2627 28.977C84.8629 29.2291 84.3288 29.4418 83.6445 29.6034L83.8743 30.5766C84.63 30.3982 85.2759 30.1509 85.796 29.823L85.2627 28.977ZM83.6365 29.6053C82.9805 29.7717 82.1351 29.86 81.0894 29.86V30.86C82.1836 30.86 83.1183 30.7683 83.8823 30.5747L83.6365 29.6053ZM81.0894 29.86C79.8056 29.86 78.7022 29.6084 77.7649 29.1213L77.3038 30.0087C78.4065 30.5816 79.6731 30.86 81.0894 30.86V29.86ZM77.7649 29.1213C76.8304 28.6358 76.1062 27.9389 75.5838 27.0224L74.715 27.5176C75.3326 28.6011 76.1983 29.4342 77.3038 30.0087L77.7649 29.1213ZM75.5838 27.0224C75.0646 26.1115 74.7944 25.0104 74.7944 23.7H73.7944C73.7944 25.1496 74.0942 26.4285 74.715 27.5176L75.5838 27.0224ZM74.7944 23.7C74.7944 22.5731 75.0332 21.5751 75.5009 20.6946L74.6178 20.2254C74.0656 21.2649 73.7944 22.4269 73.7944 23.7H74.7944ZM75.5019 20.6927C75.9669 19.8082 76.6393 19.1119 77.5294 18.598L77.0294 17.732C75.9795 18.3381 75.1718 19.1718 74.6168 20.2273L75.5019 20.6927ZM77.5274 18.5991C78.4173 18.0906 79.5029 17.825 80.8044 17.825V16.825C79.3659 16.825 78.1015 17.1194 77.0313 17.7309L77.5274 18.5991ZM80.8044 17.825C82.0297 17.825 83.0606 18.0622 83.9146 18.5164L84.3842 17.6336C83.3581 17.0878 82.1591 16.825 80.8044 16.825V17.825ZM83.9202 18.5194C84.7803 18.963 85.443 19.6113 85.9158 20.4751L86.793 19.9949C86.2258 18.9587 85.4184 18.167 84.3786 17.6306L83.9202 18.5194ZM85.9158 20.4751C86.3862 21.3345 86.6344 22.4071 86.6344 23.715H87.6344C87.6344 22.2829 87.3626 21.0355 86.793 19.9949L85.9158 20.4751ZM86.6344 23.715C86.6344 23.7832 86.6299 23.938 86.6198 24.19L87.619 24.23C87.6289 23.982 87.6344 23.8068 87.6344 23.715H86.6344ZM86.6194 24.21C86.6194 24.3242 86.617 24.4129 86.6129 24.4788C86.6083 24.5512 86.6029 24.5743 86.6043 24.5687L87.5744 24.8113C87.6118 24.662 87.6194 24.4407 87.6194 24.21H86.6194ZM87.0894 24.19H77.8494V25.19H87.0894V24.19ZM84.0641 22.3194C84.0512 21.9065 83.9233 21.4886 83.7092 21.0716L82.8196 21.5284C82.9855 21.8514 83.0575 22.1235 83.0646 22.3506L84.0641 22.3194ZM83.714 21.0813C83.49 20.6208 83.1402 20.2413 82.6867 19.939L82.132 20.771C82.4586 20.9887 82.6788 21.2392 82.8148 21.5187L83.714 21.0813ZM82.6867 19.939C82.1885 19.6068 81.5612 19.465 80.8494 19.465V20.465C81.4376 20.465 81.8503 20.5832 82.132 20.771L82.6867 19.939ZM80.8494 19.465C80.1382 19.465 79.5075 19.6015 78.9886 19.9104L79.5001 20.7696C79.8213 20.5785 80.2606 20.465 80.8494 20.465V19.465ZM78.9841 19.9131C78.511 20.2015 78.1366 20.5702 77.8795 21.0232L78.7492 21.5168C78.9121 21.2298 79.1577 20.9785 79.5047 20.7669L78.9841 19.9131ZM77.8825 21.0181C77.6421 21.4302 77.4936 21.856 77.4562 22.2923L78.4525 22.3777C78.4752 22.114 78.5667 21.8298 78.7463 21.5219L77.8825 21.0181ZM77.9544 22.835H83.5644V21.835H77.9544V22.835ZM96.9371 10.245L96.7904 10.723L96.7969 10.7249L96.9371 10.245ZM99.0521 11.085L98.8022 11.5181L98.8058 11.5201L99.0521 11.085ZM100.012 11.67L100.441 11.9276L100.663 11.5569L100.329 11.283L100.012 11.67ZM98.1821 14.715L97.8668 15.1031L98.3139 15.4663L98.6107 14.9726L98.1821 14.715ZM97.3571 14.175L97.0901 14.5977L97.0966 14.6018L97.1031 14.6057L97.3571 14.175ZM95.9771 13.545L95.8111 14.0167L95.819 14.0193L95.9771 13.545ZM92.0321 13.785L92.2985 14.2081L92.3005 14.2068L92.0321 13.785ZM91.6571 16.455L91.2721 16.774L91.2767 16.7795L91.6571 16.455ZM92.9321 17.415L92.696 17.8558L92.6992 17.8575L92.9321 17.415ZM95.0171 18.36L94.8304 18.8239L94.8359 18.826L95.0171 18.36ZM97.0721 19.335L96.8248 19.7695L96.8276 19.7711L97.0721 19.335ZM98.8271 20.64L98.4771 20.9971L98.4806 21.0004L98.8271 20.64ZM100.057 22.38L99.6019 22.5869L99.6045 22.5926L100.057 22.38ZM99.9371 27.135L99.4988 26.8943L99.4963 26.8991L99.9371 27.135ZM98.3471 28.92L98.0588 28.5115L98.0559 28.5135L98.3471 28.92ZM89.7821 29.91L89.638 30.3888L89.6435 30.3904L89.7821 29.91ZM87.2771 28.92L87.517 28.4813L87.2771 28.92ZM86.1521 28.245L85.7246 27.9857L85.511 28.3379L85.8158 28.615L86.1521 28.245ZM88.0721 25.08L88.3721 24.68L87.9308 24.349L87.6446 24.8207L88.0721 25.08ZM88.7471 25.515L88.4879 25.9426L88.4936 25.946L88.7471 25.515ZM89.9771 26.13L89.7767 26.5881L89.7802 26.5896L89.9771 26.13ZM91.5671 26.67L91.4399 27.1535L91.4419 27.1541L91.5671 26.67ZM95.7821 26.22L96.0987 26.607L95.7821 26.22ZM96.0821 23.04L95.7018 23.3646L96.0821 23.04ZM94.5971 21.915L94.3542 22.3522L94.3625 22.3566L94.5971 21.915ZM92.3321 20.85L92.1383 21.3109L92.1428 21.3128L92.3321 20.85ZM89.8721 19.56L89.5947 19.9761L89.6012 19.9802L89.8721 19.56ZM88.0571 17.73L87.6341 17.9966L87.6358 17.9992L88.0571 17.73ZM88.2521 12.3L87.8558 11.9951L87.8533 11.9984L88.2521 12.3ZM90.6221 10.485L90.4229 10.0264L90.4212 10.0271L90.6221 10.485ZM93.8321 10.34C94.9861 10.34 95.9695 10.4711 96.7905 10.723L97.0838 9.76699C96.1447 9.47887 95.0581 9.34 93.8321 9.34V10.34ZM96.7969 10.7249C97.6669 10.9791 98.3301 11.2457 98.8022 11.5181L99.302 10.6519C98.7341 10.3243 97.9873 10.0309 97.0773 9.76506L96.7969 10.7249ZM98.8058 11.5201C99.3516 11.829 99.6265 12.0005 99.6955 12.057L100.329 11.283C100.178 11.1595 99.8127 10.941 99.2984 10.6499L98.8058 11.5201ZM99.5835 11.4124L97.7535 14.4574L98.6107 14.9726L100.441 11.9276L99.5835 11.4124ZM98.4974 14.3269C98.3063 14.1716 98.0034 13.9757 97.6111 13.7443L97.1031 14.6057C97.4908 14.8343 97.738 14.9984 97.8668 15.1031L98.4974 14.3269ZM97.6241 13.7523C97.2024 13.4859 96.7038 13.2602 96.1352 13.0707L95.819 14.0193C96.3304 14.1898 96.7518 14.3841 97.0901 14.5977L97.6241 13.7523ZM96.1431 13.0733C95.5447 12.8628 94.903 12.76 94.2221 12.76V13.76C94.8013 13.76 95.3296 13.8472 95.8112 14.0167L96.1431 13.0733ZM94.2221 12.76C93.2531 12.76 92.4197 12.9457 91.7637 13.3632L92.3005 14.2068C92.7445 13.9243 93.3711 13.76 94.2221 13.76V12.76ZM91.7657 13.3619C91.0771 13.7955 90.7221 14.4521 90.7221 15.27H91.7221C91.7221 14.7879 91.9072 14.4545 92.2985 14.2081L91.7657 13.3619ZM90.7221 15.27C90.7221 15.8306 90.9104 16.3375 91.2721 16.774L92.0421 16.136C91.8238 15.8725 91.7221 15.5894 91.7221 15.27H90.7221ZM91.2767 16.7795C91.6203 17.1823 92.1024 17.5377 92.696 17.8557L93.1682 16.9743C92.6418 16.6923 92.2739 16.4077 92.0375 16.1305L91.2767 16.7795ZM92.6992 17.8575C93.2886 18.1677 94 18.4897 94.8304 18.8238L95.2038 17.8962C94.3942 17.5703 93.7156 17.2623 93.165 16.9725L92.6992 17.8575ZM94.8359 18.826C95.5339 19.0974 96.1967 19.412 96.8248 19.7695L97.3195 18.9005C96.6475 18.518 95.9404 18.1826 95.1983 17.894L94.8359 18.826ZM96.8276 19.7711C97.4514 20.1208 98.0004 20.5297 98.4771 20.997L99.1771 20.283C98.6338 19.7503 98.0128 19.2892 97.3166 18.8989L96.8276 19.7711ZM98.4806 21.0004C98.9547 21.4564 99.328 21.9842 99.6019 22.5869L100.512 22.1731C100.186 21.4558 99.7395 20.8236 99.1737 20.2796L98.4806 21.0004ZM99.6045 22.5926C99.8785 23.1759 100.022 23.8564 100.022 24.645H101.022C101.022 23.7336 100.856 22.9041 100.51 22.1674L99.6045 22.5926ZM100.022 24.645C100.022 25.5254 99.8419 26.2699 99.4989 26.8943L100.375 27.3757C100.812 26.5801 101.022 25.6646 101.022 24.645H100.022ZM99.4963 26.8991C99.1542 27.5381 98.6774 28.0748 98.0588 28.5115L98.6355 29.3285C99.3768 28.8052 99.96 28.1519 100.378 27.3709L99.4963 26.8991ZM98.0559 28.5135C97.4381 28.9561 96.7228 29.2922 95.9041 29.518L96.1701 30.482C97.0915 30.2278 97.9161 29.8439 98.6383 29.3265L98.0559 28.5135ZM95.9041 29.518C95.0801 29.7453 94.21 29.86 93.2921 29.86V30.86C94.2942 30.86 95.2541 30.7347 96.1701 30.482L95.9041 29.518ZM93.2921 29.86C92.0299 29.86 90.9077 29.7143 89.9207 29.4296L89.6435 30.3904C90.7365 30.7057 91.9543 30.86 93.2921 30.86V29.86ZM89.9262 29.4312C88.9154 29.127 88.1159 28.8088 87.517 28.4813L87.0372 29.3587C87.7183 29.7312 88.5889 30.073 89.638 30.3888L89.9262 29.4312ZM87.517 28.4813C87.1996 28.3077 86.9524 28.1676 86.7731 28.06C86.6834 28.0062 86.6139 27.9624 86.5626 27.9281C86.5069 27.8907 86.4878 27.8745 86.4884 27.875L85.8158 28.615C85.9133 28.7037 86.0778 28.809 86.2586 28.9175C86.4543 29.0349 86.7147 29.1823 87.0372 29.3587L87.517 28.4813ZM86.5796 28.5043L88.4996 25.3393L87.6446 24.8207L85.7246 27.9857L86.5796 28.5043ZM87.7721 25.48C87.9143 25.5867 88.159 25.7432 88.488 25.9426L89.0063 25.0874C88.6752 24.8868 88.4699 24.7533 88.3721 24.68L87.7721 25.48ZM88.4936 25.946C88.8553 26.1587 89.284 26.3725 89.7767 26.5881L90.1775 25.6719C89.7102 25.4675 89.319 25.2713 89.0006 25.084L88.4936 25.946ZM89.7802 26.5896C90.295 26.8102 90.8485 26.9979 91.4399 27.1535L91.6944 26.1865C91.1457 26.0421 90.6392 25.8698 90.1741 25.6704L89.7802 26.5896ZM91.4419 27.1541C92.0629 27.3147 92.6949 27.395 93.3371 27.395V26.395C92.7793 26.395 92.2313 26.3253 91.6923 26.1859L91.4419 27.1541ZM93.3371 27.395C94.4752 27.395 95.4233 27.1596 96.0987 26.607L95.4655 25.833C95.0409 26.1804 94.359 26.395 93.3371 26.395V27.395ZM96.0987 26.607C96.7666 26.0606 97.1071 25.3327 97.1071 24.465H96.1071C96.1071 25.0373 95.8977 25.4794 95.4655 25.833L96.0987 26.607ZM97.1071 24.465C97.1071 23.8062 96.8898 23.2161 96.4624 22.7154L95.7018 23.3646C95.9744 23.6839 96.1071 24.0438 96.1071 24.465H97.1071ZM96.4624 22.7154C96.0602 22.2442 95.5092 21.8334 94.8317 21.4734L94.3625 22.3566C94.965 22.6766 95.404 23.0158 95.7018 23.3646L96.4624 22.7154ZM94.8399 21.4779C94.1882 21.1158 93.4143 20.7525 92.5214 20.3872L92.1428 21.3128C93.0099 21.6675 93.746 22.0142 94.3543 22.3521L94.8399 21.4779ZM92.5259 20.3891C91.6713 20.0297 90.8773 19.6131 90.143 19.1398L89.6012 19.9802C90.387 20.4869 91.2329 20.9303 92.1383 21.3109L92.5259 20.3891ZM90.1495 19.144C89.4539 18.6803 88.8991 18.1192 88.4785 17.4608L87.6358 17.9992C88.1351 18.7808 88.7903 19.4397 89.5948 19.976L90.1495 19.144ZM88.4801 17.4634C88.0808 16.8297 87.8671 16.0323 87.8671 15.045H86.8671C86.8671 16.1777 87.1134 17.1703 87.6341 17.9966L88.4801 17.4634ZM87.8671 15.045C87.8671 14.0954 88.1315 13.2882 88.6509 12.6016L87.8533 11.9984C87.1927 12.8718 86.8671 13.8946 86.8671 15.045H87.8671ZM88.6484 12.6049C89.1928 11.8972 89.9131 11.3421 90.823 10.9429L90.4212 10.0271C89.3712 10.4879 88.5115 11.1428 87.8558 11.9951L88.6484 12.6049ZM90.8213 10.9436C91.7444 10.5427 92.7461 10.34 93.8321 10.34V9.34C92.6181 9.34 91.4798 9.56733 90.4229 10.0264L90.8213 10.9436ZM99.6777 17.685V17.185H99.1777V17.685H99.6777ZM101.898 17.685V18.185H102.398V17.685H101.898ZM101.898 12.63V12.13H101.398V12.63H101.898ZM105.678 12.63H106.178V12.13H105.678V12.63ZM105.678 17.685H105.178V18.185H105.678V17.685ZM108.588 17.685H109.088V17.185H108.588V17.685ZM108.588 20.85V21.35H109.088V20.85H108.588ZM105.678 20.85V20.35H105.178V20.85H105.678ZM105.963 26.685L105.529 26.9345L105.533 26.9403L105.963 26.685ZM107.628 26.985L107.885 27.4137L107.893 27.4091L107.9 27.4042L107.628 26.985ZM107.988 26.715L108.436 26.4934L108.088 25.7895L107.597 26.4027L107.988 26.715ZM109.338 29.445L109.691 29.7986L109.945 29.5449L109.786 29.2234L109.338 29.445ZM108.753 29.76L108.546 29.3048L108.54 29.3073L108.753 29.76ZM107.508 30.165L107.393 29.6782L107.382 29.6811L107.508 30.165ZM103.008 29.385L102.675 29.7582L102.678 29.7607L103.008 29.385ZM101.898 20.85H102.398V20.35H101.898V20.85ZM99.6777 20.85H99.1777V21.35H99.6777V20.85ZM99.6777 18.185H101.898V17.185H99.6777V18.185ZM102.398 17.685V12.63H101.398V17.685H102.398ZM101.898 13.13H105.678V12.13H101.898V13.13ZM105.178 12.63V17.685H106.178V12.63H105.178ZM105.678 18.185H108.588V17.185H105.678V18.185ZM108.088 17.685V20.85H109.088V17.685H108.088ZM108.588 20.35H105.678V21.35H108.588V20.35ZM105.178 20.85V25.305H106.178V20.85H105.178ZM105.178 25.305C105.178 25.9386 105.278 26.4979 105.529 26.9345L106.396 26.4355C106.267 26.2121 106.178 25.8514 106.178 25.305H105.178ZM105.533 26.9403C105.823 27.4297 106.298 27.665 106.863 27.665V26.665C106.607 26.665 106.482 26.5803 106.393 26.4297L105.533 26.9403ZM106.863 27.665C107.234 27.665 107.586 27.5933 107.885 27.4137L107.37 26.5563C107.27 26.6167 107.111 26.665 106.863 26.665V27.665ZM107.9 27.4042C108.005 27.3362 108.095 27.2744 108.168 27.22C108.229 27.1744 108.315 27.1066 108.378 27.0273L107.597 26.4027C107.614 26.382 107.624 26.3748 107.613 26.3837C107.606 26.3904 107.591 26.4022 107.568 26.42C107.52 26.4556 107.451 26.5038 107.355 26.5658L107.9 27.4042ZM107.539 26.9366L108.889 29.6666L109.786 29.2234L108.436 26.4934L107.539 26.9366ZM108.984 29.0914C109.006 29.0693 109.017 29.0647 108.996 29.0787C108.979 29.0895 108.951 29.106 108.909 29.1285C108.826 29.1734 108.706 29.2319 108.546 29.3048L108.96 30.2152C109.129 30.1381 109.272 30.0691 109.383 30.009C109.476 29.9589 109.603 29.8872 109.691 29.7986L108.984 29.0914ZM108.54 29.3073C108.263 29.4374 107.884 29.5628 107.393 29.6783L107.622 30.6517C108.151 30.5272 108.603 30.3826 108.965 30.2127L108.54 29.3073ZM107.382 29.6811C106.931 29.7984 106.409 29.86 105.813 29.86V30.86C106.476 30.86 107.085 30.7916 107.633 30.6489L107.382 29.6811ZM105.813 29.86C104.785 29.86 103.973 29.5675 103.338 29.0093L102.678 29.7607C103.522 30.5025 104.58 30.86 105.813 30.86V29.86ZM103.34 29.0119C102.743 28.4794 102.398 27.6203 102.398 26.325H101.398C101.398 27.7897 101.792 28.9706 102.675 29.7581L103.34 29.0119ZM102.398 26.325V20.85H101.398V26.325H102.398ZM101.898 20.35H99.6777V21.35H101.898V20.35ZM100.178 20.85V17.685H99.1777V20.85H100.178ZM118.235 30H117.735V30.5H118.235V30ZM118.235 27.855H118.735L117.772 27.6657L118.235 27.855ZM117.545 28.785L117.912 29.1245L117.545 28.785ZM116.045 29.88L116.275 30.3243L116.277 30.3229L116.045 29.88ZM110.72 29.52L110.455 29.9438L110.458 29.9458L110.72 29.52ZM108.575 27.195L108.131 27.424L108.134 27.4294L108.575 27.195ZM108.575 20.52L108.133 20.2875L108.132 20.2892L108.575 20.52ZM110.72 18.18L110.455 17.7563L110.72 18.18ZM115.985 17.745L115.774 18.1982L115.783 18.2022L115.985 17.745ZM117.455 18.705L117.102 19.0587L117.111 19.068L117.455 18.705ZM118.19 19.68L117.723 19.8573L118.69 19.68H118.19ZM118.19 17.685V17.185H117.69V17.685H118.19ZM121.97 17.685H122.47V17.185H121.97V17.685ZM121.97 30V30.5H122.47V30H121.97ZM112.01 25.68L111.579 25.9324L111.581 25.936L112.01 25.68ZM113.24 26.895L113.487 26.4604L113.24 26.895ZM116.585 26.895L116.84 27.3253L116.846 27.3214L116.585 26.895ZM117.74 25.665L117.302 25.425L117.3 25.4279L117.74 25.665ZM117.74 22.05L117.298 22.2836L117.304 22.2935L117.74 22.05ZM116.585 20.805L116.846 20.3786L116.585 20.805ZM113.24 20.805L113.487 21.2397L113.494 21.236L113.24 20.805ZM112.01 22.035L112.44 22.291L112.442 22.2874L112.01 22.035ZM118.735 30V27.855H117.735V30H118.735ZM117.772 27.6657C117.72 27.7946 117.547 28.0473 117.178 28.4455L117.912 29.1245C118.284 28.7227 118.571 28.3554 118.698 28.0443L117.772 27.6657ZM117.178 28.4455C116.857 28.793 116.407 29.1259 115.813 29.4371L116.277 30.3229C116.943 29.9741 117.494 29.577 117.912 29.1245L117.178 28.4455ZM115.816 29.4357C115.28 29.7124 114.632 29.86 113.855 29.86V30.86C114.759 30.86 115.571 30.6876 116.275 30.3243L115.816 29.4357ZM113.855 29.86C112.758 29.86 111.805 29.6007 110.982 29.0942L110.458 29.9458C111.455 30.5593 112.593 30.86 113.855 30.86V29.86ZM110.986 29.0963C110.153 28.5744 109.497 27.8658 109.017 26.9606L108.134 27.4294C108.693 28.4842 109.468 29.3256 110.455 29.9437L110.986 29.0963ZM109.02 26.966C108.55 26.0546 108.31 25.0195 108.31 23.85H107.31C107.31 25.1605 107.58 26.3554 108.131 27.424L109.02 26.966ZM108.31 23.85C108.31 22.6804 108.55 21.6512 109.019 20.7508L108.132 20.2892C107.58 21.3488 107.31 22.5396 107.31 23.85H108.31ZM109.018 20.7525C109.499 19.8374 110.154 19.1248 110.986 18.6037L110.455 17.7563C109.467 18.3752 108.692 19.2226 108.133 20.2875L109.018 20.7525ZM110.986 18.6037C111.808 18.0884 112.759 17.825 113.855 17.825V16.825C112.591 16.825 111.452 17.1316 110.455 17.7563L110.986 18.6037ZM113.855 17.825C114.619 17.825 115.254 17.9554 115.774 18.1981L116.197 17.2919C115.517 16.9746 114.731 16.825 113.855 16.825V17.825ZM115.783 18.2022C116.351 18.4538 116.785 18.7423 117.102 19.0586L117.809 18.3514C117.385 17.9277 116.839 17.5762 116.188 17.2878L115.783 18.2022ZM117.111 19.068C117.469 19.4072 117.652 19.6703 117.723 19.8573L118.658 19.5027C118.509 19.1097 118.201 18.7228 117.799 18.342L117.111 19.068ZM118.69 19.68V17.685H117.69V19.68H118.69ZM118.19 18.185H121.97V17.185H118.19V18.185ZM121.47 17.685V30H122.47V17.685H121.47ZM121.97 29.5H118.235V30.5H121.97V29.5ZM111.045 23.85C111.045 24.6175 111.218 25.3167 111.579 25.9324L112.442 25.4276C112.182 24.9833 112.045 24.4625 112.045 23.85H111.045ZM111.581 25.936C111.934 26.5279 112.405 26.9955 112.993 27.3296L113.487 26.4604C113.055 26.2145 112.707 25.8721 112.44 25.424L111.581 25.936ZM112.993 27.3296C113.58 27.6635 114.221 27.83 114.905 27.83V26.83C114.39 26.83 113.92 26.7065 113.487 26.4604L112.993 27.3296ZM114.905 27.83C115.615 27.83 116.265 27.6657 116.84 27.3253L116.331 26.4647C115.926 26.7043 115.455 26.83 114.905 26.83V27.83ZM116.846 27.3214C117.414 26.9739 117.86 26.4976 118.18 25.9021L117.3 25.4279C117.061 25.8724 116.737 26.2161 116.324 26.4686L116.846 27.3214ZM118.179 25.905C118.514 25.2926 118.675 24.6032 118.675 23.85H117.675C117.675 24.4568 117.547 24.9774 117.302 25.425L118.179 25.905ZM118.675 23.85C118.675 23.097 118.514 22.4109 118.177 21.8065L117.304 22.2935C117.546 22.7291 117.675 23.243 117.675 23.85H118.675ZM118.182 21.8164C117.862 21.2107 117.416 20.7275 116.846 20.3786L116.324 21.2314C116.734 21.4825 117.058 21.8293 117.298 22.2836L118.182 21.8164ZM116.846 20.3786C116.27 20.0259 115.618 19.855 114.905 19.855V20.855C115.452 20.855 115.92 20.9841 116.324 21.2314L116.846 20.3786ZM114.905 19.855C114.217 19.855 113.575 20.0282 112.987 20.374L113.494 21.236C113.926 20.9818 114.393 20.855 114.905 20.855V19.855ZM112.993 20.3704C112.403 20.7059 111.931 21.1803 111.579 21.7826L112.442 22.2874C112.71 21.8297 113.057 21.4841 113.487 21.2396L112.993 20.3704ZM111.581 21.779C111.218 22.3867 111.045 23.0827 111.045 23.85H112.045C112.045 23.2373 112.182 22.7233 112.44 22.291L111.581 21.779ZM121.348 17.685V17.185H120.848V17.685H121.348ZM123.568 17.685V18.185H124.068V17.685H123.568ZM123.568 12.63V12.13H123.068V12.63H123.568ZM127.348 12.63H127.848V12.13H127.348V12.63ZM127.348 17.685H126.848V18.185H127.348V17.685ZM130.258 17.685H130.758V17.185H130.258V17.685ZM130.258 20.85V21.35H130.758V20.85H130.258ZM127.348 20.85V20.35H126.848V20.85H127.348ZM127.633 26.685L127.2 26.9345L127.203 26.9403L127.633 26.685ZM129.298 26.985L129.555 27.4137L129.563 27.4091L129.57 27.4042L129.298 26.985ZM129.658 26.715L130.106 26.4934L129.758 25.7895L129.268 26.4027L129.658 26.715ZM131.008 29.445L131.362 29.7986L131.615 29.5449L131.456 29.2234L131.008 29.445ZM130.423 29.76L130.216 29.3048L130.211 29.3073L130.423 29.76ZM129.178 30.165L129.063 29.6782L129.052 29.6811L129.178 30.165ZM124.678 29.385L124.345 29.7582L124.348 29.7607L124.678 29.385ZM123.568 20.85H124.068V20.35H123.568V20.85ZM121.348 20.85H120.848V21.35H121.348V20.85ZM121.348 18.185H123.568V17.185H121.348V18.185ZM124.068 17.685V12.63H123.068V17.685H124.068ZM123.568 13.13H127.348V12.13H123.568V13.13ZM126.848 12.63V17.685H127.848V12.63H126.848ZM127.348 18.185H130.258V17.185H127.348V18.185ZM129.758 17.685V20.85H130.758V17.685H129.758ZM130.258 20.35H127.348V21.35H130.258V20.35ZM126.848 20.85V25.305H127.848V20.85H126.848ZM126.848 25.305C126.848 25.9386 126.948 26.4979 127.2 26.9345L128.066 26.4355C127.938 26.2121 127.848 25.8514 127.848 25.305H126.848ZM127.203 26.9403C127.494 27.4297 127.968 27.665 128.533 27.665V26.665C128.278 26.665 128.152 26.5803 128.063 26.4297L127.203 26.9403ZM128.533 27.665C128.905 27.665 129.256 27.5933 129.555 27.4137L129.041 26.5563C128.94 26.6167 128.781 26.665 128.533 26.665V27.665ZM129.57 27.4042C129.675 27.3362 129.765 27.2744 129.838 27.22C129.899 27.1744 129.985 27.1066 130.048 27.0273L129.268 26.4027C129.284 26.382 129.294 26.3748 129.284 26.3837C129.276 26.3904 129.262 26.4022 129.238 26.42C129.191 26.4556 129.121 26.5038 129.025 26.5658L129.57 27.4042ZM129.21 26.9366L130.56 29.6666L131.456 29.2234L130.106 26.4934L129.21 26.9366ZM130.654 29.0914C130.677 29.0693 130.688 29.0647 130.666 29.0787C130.649 29.0895 130.621 29.106 130.58 29.1285C130.496 29.1734 130.376 29.2319 130.216 29.3048L130.63 30.2152C130.8 30.1381 130.942 30.0691 131.054 30.009C131.147 29.9589 131.273 29.8872 131.362 29.7986L130.654 29.0914ZM130.211 29.3073C129.933 29.4374 129.554 29.5628 129.063 29.6783L129.292 30.6517C129.822 30.5272 130.273 30.3826 130.635 30.2127L130.211 29.3073ZM129.052 29.6811C128.601 29.7984 128.079 29.86 127.483 29.86V30.86C128.146 30.86 128.755 30.7916 129.304 30.6489L129.052 29.6811ZM127.483 29.86C126.455 29.86 125.643 29.5675 125.008 29.0093L124.348 29.7607C125.193 30.5025 126.251 30.86 127.483 30.86V29.86ZM125.011 29.0119C124.414 28.4794 124.068 27.6203 124.068 26.325H123.068C123.068 27.7897 123.462 28.9706 124.345 29.7581L125.011 29.0119ZM124.068 26.325V20.85H123.068V26.325H124.068ZM123.568 20.35H121.348V21.35H123.568V20.35ZM121.848 20.85V17.685H120.848V20.85H121.848Z" fill="url(#paint0_linear_70_756)" mask="url(#path-1-outside-1_70_756)"/>
<path d="M32.9044 2.40625H25.7891L15.3594 31H22.5078L32.9044 2.40625Z" fill="#0193EB" stroke="#0193EB" stroke-width="0.234375"/>
<path d="M31.0294 1H23.9141L13.4844 29.5938H20.6328L31.0294 1Z" fill="#F4F4F4" stroke="#0193EB" stroke-width="0.234375"/>
<path d="M18.9922 8.96875H11.9609L3.875 31H11.0234L18.9922 8.96875Z" fill="#0193EB" stroke="#0193EB" stroke-width="0.234375"/>
<path d="M17.1172 7.5625H10.0859L2 29.5938H9.14844L17.1172 7.5625Z" fill="#F4F4F4" stroke="#0193EB" stroke-width="0.234375"/>
<defs>
<linearGradient id="paint0_linear_70_756" x1="81.375" y1="9" x2="81.0139" y2="25.3975" gradientUnits="userSpaceOnUse">
<stop stop-color="#DDDDDD"/>
<stop offset="1" stop-color="#0093EB"/>
</linearGradient>
</defs>
</svg>
